<?xml version="1.0" encoding="UTF-8" standalone="no"?>
<!-- Created with Inkscape (http://www.inkscape.org/) -->

<svg
   xmlns:dc="http://purl.org/dc/elements/1.1/"
   xmlns:cc="http://creativecommons.org/ns#"
   xmlns:rdf="http://www.w3.org/1999/02/22-rdf-syntax-ns#"
   xmlns:svg="http://www.w3.org/2000/svg"
   xmlns="http://www.w3.org/2000/svg"
   xmlns:sodipodi="http://sodipodi.sourceforge.net/DTD/sodipodi-0.dtd"
   xmlns:inkscape="http://www.inkscape.org/namespaces/inkscape"
   width="127.40833mm"
   height="127.40833mm"
   viewBox="0 0 127.40833 127.40833"
   version="1.1"
   id="svg8"
   inkscape:version="0.92.4 5da689c313, 2019-01-14"
   sodipodi:docname="pico-8.svg">
  <defs
     id="defs2" />
  <sodipodi:namedview
     id="base"
     pagecolor="#ffffff"
     bordercolor="#666666"
     borderopacity="1.0"
     inkscape:pageopacity="0.0"
     inkscape:pageshadow="2"
     inkscape:zoom="0.5"
     inkscape:cx="231.10198"
     inkscape:cy="94.881175"
     inkscape:document-units="mm"
     inkscape:current-layer="layer1"
     showgrid="false"
     inkscape:window-width="1364"
     inkscape:window-height="766"
     inkscape:window-x="0"
     inkscape:window-y="0"
     inkscape:window-maximized="0"
     units="mm"
     width="150mm" />
  <metadata
     id="metadata5">
    <rdf:RDF>
      <cc:Work
         rdf:about="">
        <dc:format>image/svg+xml</dc:format>
        <dc:type
           rdf:resource="http://purl.org/dc/dcmitype/StillImage" />
        <dc:title></dc:title>
      </cc:Work>
    </rdf:RDF>
  </metadata>
  <g
     inkscape:label="Layer 1"
     inkscape:groupmode="layer"
     id="layer1"
     transform="translate(-12.49049,-157.10385)">
    <g
       id="g79939"
       transform="matrix(1.0617361,0,0,1.0617361,-35.043071,72.328982)">
      <g
         style="fill:#a7a7a7;fill-opacity:1"
         id="g78876"
         transform="translate(13.972027,67.668457)">
        <path
           inkscape:connector-curvature="0"
           id="path78378"
           d="m 78.92264,12.802059 q 0.125,-0.375 0.5,-0.5 0.37499,-0.125 0.875,-0.125 0.5,0 0.99999,0 0.50001,0 1,0 0.50001,0 1.00001,0 0.49999,0 0.99999,0 0.5,0 1,0 0.5,0 1,0 0.5,0 1,0 0.5,0 1,0 0.5,0 1,0 0.5,0 1,0 0.5,0 1,0 0.5,0 1,0 0.5,0 1,0 0.5,0 1,0 0.5,0 1,0 0.5,0 1,0 0.5,0 1,0 0.5,0 1,0 0.5,0 1,0 0.5,0 1,0 0.5,0 1,0 0.5,0 0.875,0.125 0.375,0.125 0.5,0.5 0.125,0.375 0.125,0.875 0,0.5 0,1 v 0.5 0.5 q 0,0.5 0,1 0,0.5 0,1 0,0.5 0,1 v 0.5 0.5 q 0,0.5 0,1 0,0.5 0,1 0,0.5 0,1 0,0.5 0,1 0,0.5 0,1 0,0.5 0,1 0,0.5 0,1 v 0.5 0.5 q 0,0.5 0,1 0,0.5 0,1 0,0.5 0,1 0,0.5 0,1 0,0.5 0,1 0,0.5 0,1 0,0.5 0,1 0,0.5 0,1 v 0.5 h -0.5 q -0.5,0 -1,0 -0.5,0 -1,0 -0.5,0 -1,0 -0.5,0 -1,0 -0.5,0 -1,0 -0.5,0 -1,0 -0.5,0 -1,0 -0.5,0 -1,0 -0.5,0 -1,0 -0.5,0 -1,0 -0.5,0 -1,0 -0.5,0 -1,0 -0.5,0 -1,0 -0.5,0 -1,0 -0.5,0 -1,0 -0.5,0 -1,0 -0.5,0 -1,0 -0.5,0 -1,0 -0.5,0 -0.99999,0 -0.5,0 -1.00001,0 -0.49999,0 -1,0 -0.49999,0 -0.99999,0 -0.50001,0 -1,0 h -0.50001 v -0.5 q 0,-0.5 0,-1 0,-0.5 0,-1 0,-0.5 0,-1 0,-0.5 0,-1 0,-0.5 0,-1 0,-0.5 0,-1 0,-0.5 0,-1 0,-0.5 0,-1 v -0.5 -0.5 q 0,-0.5 0,-1 0,-0.5 0,-1 0,-0.5 0,-1 0,-0.5 0,-1 0,-0.5 0,-1 0,-0.5 0,-1 0,-0.5 0,-1 v -0.5 -0.5 q 0,-0.5 0,-1 0,-0.5 0,-1 0,-0.5 0,-1 v -0.5 -0.5 q 0,-0.5 0,-1 0,-0.5 0.12501,-0.875"
           style="fill:#a7a7a7;fill-opacity:1;stroke-width:1" />
        <path
           d="m 56.29749,36.177029 c -0.33334,0 -0.62489,0.0417 -0.87488,0.12505 -0.25001,0.0833 -0.4169,0.25023 -0.50023,0.50023 -0.0833,0.25 -0.12454,0.54155 -0.12454,0.87488 v 0.999941 0.499708 0.500232 0.99994 0.99994 0.500229 0.499711 0.999939 1.000461 0.99993 0.999939 0.99994 0.99994 0.99994 0.999939 0.500232 0.499708 1.000451 0.99994 0.999939 0.999943 0.999937 0.99994 0.999939 0.999938 0.500229 h 0.49971 0.99994 0.99994 1.00045 0.99994 0.99994 0.99994 0.99994 0.99994 0.99994 0.99993 0.99994 1.00046 0.99994 0.99994 0.99994 0.99994 0.99993 0.99994 0.99994 1.00046 0.99994 0.99994 c 0.33333,0 0.62488,-0.04173 0.87488,-0.125058 0.25,-0.08333 0.41689,-0.250227 0.50023,-0.500227 0.0833,-0.250002 0.12454,-0.541549 0.12454,-0.874882 v -0.999939 -0.99994 -0.999937 -0.999943 -0.999939 -0.99994 -1.000451 -0.99994 -0.999939 -0.99994 -0.99994 -0.99994 -0.999939 -0.99993 -1.000461 -0.999939 -0.99994 -0.99994 -0.99994 -0.99994 -0.999941 -0.99993 -0.50023 H 78.2977 77.29776 76.29782 75.29788 74.29742 73.29748 72.29754 71.29761 70.29767 69.29773 68.29779 67.29785 66.29739 65.29745 64.29752 63.29758 62.29764 61.2977 60.29776 59.29782 58.29788 57.29743 Z"
           style="fill:#a7a7a7;fill-opacity:1;stroke-width:1"
           id="path78392"
           inkscape:connector-curvature="0" />
        <path
           inkscape:connector-curvature="0"
           id="path78396"
           d="m 102.79763,36.677059 v -0.5 h 0.5 q 0.5,0 1,0 0.5,0 1,0 0.5,0 1,0 0.5,0 1,0 0.5,0 1,0 0.5,0 1,0 0.5,0 1,0 0.5,0 1,0 0.5,0 1,0 0.5,0 1,0 0.5,0 1,0 0.5,0 1,0 0.5,0 1,0 0.5,0 1,0 0.5,0 1,0 0.5,0 1,0 0.5,0 1,0 0.5,0 1,0 0.5,0 1,0 0.5,0 1,0 0.5,0 1,0 0.5,0 1,0 0.5,0 0.875,0.125 0.375,0.125 0.5,0.5 0.125,0.375 0.125,0.875 0,0.5 0,1 v 0.500009 0.500002 q 0,0.499989 0,0.999998 0,0.499991 0,0.99999 v 0.500012 0.499989 q 0,0.500009 0,1 0,0.499999 0,1.000009 0,0.499991 0,0.99999 0,0.500012 0,1.000001 0,0.500009 0,1 0,0.499999 0,1.000012 0,0.499988 0,0.999987 0,0.500012 0,1.000001 v 0.500009 0.499991 q 0,0.499999 0,1.000012 0,0.499988 0,0.999998 0,0.500001 0,0.99999 0,0.500009 0,1 0,0.499999 0,1.000006 0,0.499999 0,1.000001 0,0.499999 0,0.999998 0,0.500002 0,1.000001 v 0.499999 h -0.5 q -0.5,0 -1,0 -0.5,0 -1,0 -0.5,0 -1,0 -0.5,0 -1,0 -0.5,0 -1,0 -0.5,0 -1,0 -0.5,0 -1,0 -0.5,0 -1,0 -0.5,0 -1,0 -0.5,0 -1,0 -0.5,0 -1,0 -0.5,0 -1,0 -0.5,0 -1,0 -0.5,0 -1,0 -0.5,0 -1,0 -0.5,0 -1,0 -0.5,0 -1,0 -0.5,0 -1,0 -0.5,0 -1,0 -0.5,0 -1,0 -0.5,0 -1,0 -0.5,0 -1,0 -0.5,0 -0.875,-0.125 -0.375,-0.125 -0.5,-0.499999 -0.125,-0.374999 -0.125,-0.875001 0,-0.499999 0,-0.999998 0,-0.500002 0,-1.000001 0,-0.500007 0,-1.000006 0,-0.499991 0,-1 0,-0.499989 0,-0.99999 0,-0.50001 0,-0.999998 0,-0.500013 0,-1.000012 0,-0.499991 0,-1 0,-0.499989 0,-1.000001 0,-0.499999 0,-0.999987 0,-0.500013 0,-1.000012 0,-0.499991 0,-1 0,-0.499989 0,-1.000001 0,-0.499999 0,-0.99999 0,-0.50001 0,-1.000009 0,-0.499991 0,-1 0,-0.499989 0,-1.000001 0,-0.499999 0,-0.99999 0,-0.500009 0,-0.999998 0,-0.500002 0,-1.000011 0,-0.5 0,-1 0,-0.5 0,-1"
           style="fill:#a7a7a7;fill-opacity:1;stroke-width:1" />
        <path
           inkscape:connector-curvature="0"
           id="path78410"
           d="m 30.92263,60.802065 q 0.125,-0.374999 0.5,-0.499999 0.375,-0.125002 0.875,-0.125002 0.5,0 1,0 0.5,0 1,0 0.5,0 1,0 0.5,0 1,0 0.5,0 1,0 0.5,0 1,0 0.5,0 1,0 0.5,0 1,0 0.5,0 1,0 0.5,0 1,0 0.5,0 1,0 0.5,0 1,0 0.5,0 1,0 0.5,0 1,0 0.5,0 1,0 0.5,0 1,0 0.5,0 1,0 0.5,0 1,0 0.5,0 1,0 0.5,0 1,0 0.5,0 1,0 0.5,0 1,0 h 0.5 v 0.500001 q 0,0.499999 0,1.000001 0,0.499999 0,0.999998 0,0.500001 0,1 0,0.500002 0,1.000001 0,0.499999 0,1.000001 0,0.499999 0,0.999998 0,0.500001 0,1 0,0.500002 0,1.000001 0,0.499999 0,1.000001 0,0.499998 0,0.999997 0,0.500002 0,1.000001 0,0.500002 0,1.000001 0,0.499999 0,1 0,0.499999 0,0.999998 0,0.500002 0,1.000001 0,0.500001 0,1 0,0.499999 0,1.000001 0,0.499999 0,1.000001 0,0.499999 0,0.999998 0,0.500001 0,1 0,0.499999 0,1.000001 0,0.499999 0,1.000001 0,0.499999 0,0.999998 v 0.500002 h -0.5 q -0.5,0 -1,0 -0.5,0 -1,0 -0.5,0 -1,0 -0.5,0 -1,0 -0.5,0 -1,0 -0.5,0 -1,0 -0.5,0 -1,0 -0.5,0 -1,0 -0.5,0 -1,0 -0.5,0 -1,0 -0.5,0 -1,0 -0.5,0 -1,0 -0.5,0 -1,0 -0.5,0 -1,0 -0.5,0 -1,0 -0.5,0 -1,0 -0.5,0 -1,0 -0.5,0 -1,0 -0.5,0 -1,0 -0.5,0 -1,0 -0.5,0 -1,0 -0.5,0 -1,0 -0.5,0 -0.875,-0.125 -0.375,-0.125 -0.5,-0.500002 -0.125,-0.374999 -0.125,-0.874998 0,-0.500002 0,-1.000001 0,-0.500002 0,-1.000001 0,-0.499999 0,-1 0,-0.499999 0,-0.999998 0,-0.500002 0,-1.000001 0,-0.500002 0,-1.000001 v -0.499999 -0.500001 q 0,-0.499999 0,-1.000001 0,-0.499999 0,-0.999998 0,-0.500001 0,-1 0,-0.499999 0,-1.000001 0,-0.499999 0,-1.000001 0,-0.499999 0,-0.999997 0,-0.500002 0,-1.000001 0,-0.499999 0,-1.000001 0,-0.499999 0,-1 0,-0.499999 0,-0.999998 v -0.500002 -0.499999 -0.499999 -0.500002 q 0,-0.499999 0,-1 0,-0.499999 0,-0.999998 0,-0.500002 0.125,-0.875001"
           style="fill:#a7a7a7;fill-opacity:1;stroke-width:1" />
        <path
           inkscape:connector-curvature="0"
           id="path78412"
           d="m 126.79763,60.677065 v -0.500001 h 0.5 q 0.5,0 1,0 0.5,0 1,0 0.5,0 1,0 0.5,0 1,0 0.5,0 1,0 0.5,0 1,0 0.5,0 1,0 0.5,0 1,0 0.5,0 1,0 0.5,0 1,0 0.5,0 1,0 0.5,0 1,0 0.5,0 1,0 0.5,0 1,0 0.5,0 1,0 0.5,0 1,0 0.5,0 1,0 0.50001,0 1,0 0.5,0 1,0 0.5,0 1.00001,0 0.49999,0 0.99999,0 0.50001,0 1,0 0.5,0 0.87502,0.125002 0.37498,0.125 0.49998,0.499999 0.125,0.374999 0.125,0.875001 0,0.499999 0,0.999998 0,0.500001 0,1 v 0.500002 0.499999 0.499999 0.500002 q 0,0.499999 0,0.999998 0,0.500001 0,1 0,0.500002 0,1.000001 0,0.499999 0,1.000001 0,0.499998 0,0.999997 0,0.500002 0,1.000001 0,0.500002 0,1.000001 0,0.499999 0,1 0,0.499999 0,0.999998 0,0.500002 0,1.000001 v 0.500001 0.499999 q 0,0.499999 0,1.000001 0,0.499999 0,1.000001 0,0.499999 0,0.999998 0,0.500001 0,1 0,0.499999 0,1.000001 0,0.499999 0,1.000001 0,0.499999 -0.125,0.874998 -0.125,0.375002 -0.49998,0.500002 -0.37502,0.125 -0.87502,0.125 -0.49999,0 -1,0 -0.5,0 -0.99999,0 -0.50001,0 -1.00001,0 -0.5,0 -1,0 -0.49999,0 -1,0 -0.5,0 -1,0 -0.5,0 -1,0 -0.5,0 -1,0 -0.5,0 -1,0 -0.5,0 -1,0 -0.5,0 -1,0 -0.5,0 -1,0 -0.5,0 -1,0 -0.5,0 -1,0 -0.5,0 -1,0 -0.5,0 -1,0 -0.5,0 -1,0 -0.5,0 -1,0 -0.5,0 -1,0 -0.5,0 -1,0 -0.5,0 -1,0 -0.5,0 -1,0 h -0.5 v -0.500002 q 0,-0.499999 0,-0.999998 0,-0.500002 0,-1.000001 0,-0.500002 0,-1.000001 0,-0.499999 0,-1 0,-0.499999 0,-0.999998 0,-0.500002 0,-1.000001 0,-0.500002 0,-1.000001 0,-0.499999 0,-1 0,-0.499999 0,-1.000001 0,-0.499999 0,-0.999998 0,-0.500001 0,-1 0,-0.499999 0,-1.000001 0,-0.499999 0,-1.000001 0,-0.499999 0,-0.999997 0,-0.500002 0,-1.000001 0,-0.499999 0,-1.000001 0,-0.499999 0,-1 0,-0.499999 0,-0.999998 0,-0.500002 0,-1.000001 0,-0.499999 0,-1.000001 0,-0.499999 0,-1 0,-0.499999 0,-0.999998 0,-0.500002 0,-1.000001"
           style="fill:#a7a7a7;fill-opacity:1;stroke-width:1" />
        <path
           inkscape:connector-curvature="0"
           id="path78428"
           d="m 54.79763,84.677065 v -0.499999 h 0.5 q 0.5,0 1,0 0.5,0 1,0 0.50001,0 1.00001,0 0.49999,0 1,0 0.49999,0 0.99999,0 0.50001,0 1,0 0.50001,0 1,0 0.5,0 1.00001,0 0.49999,0 0.99999,0 0.50001,0 1,0 0.50001,0 1,0 0.5,0 1.00001,0 0.49999,0 1,0 0.5,0 0.99999,0 0.50001,0 1,0 0.5,0 1.00001,0 0.49999,0 1,0 0.5,0 0.99999,0 0.50001,0 1,0 0.5,0 1.00001,0 0.49999,0 1,0 0.5,0 0.99999,0 0.50001,0 0.875,0.124999 0.375,0.125 0.5,0.499999 0.125,0.375 0.125,0.875001 0,0.499999 0,1.000001 0,0.499999 0,0.999998 0,0.500001 0,1 0,0.500002 0,1.000001 0,0.499999 0,1.000001 0,0.499999 0,0.999998 0,0.500002 0,1.000001 0,0.500001 0,1 0,0.499999 0,1.000001 0,0.499999 0,0.999998 0,0.500002 0,1.000001 0,0.500001 0,1 0,0.499999 0,1.000001 0,0.499999 0,0.999998 0,0.500006 0,1.000006 0,0.5 0,1 0,0.49999 0,1 0,0.5 0,1 0,0.5 0,1 0,0.5 0,1 0,0.49999 0,1 0,0.5 0,1 v 0.5 h -0.5 q -0.49999,0 -1,0 -0.49999,0 -0.99999,0 -0.50001,0 -1,0 -0.50001,0 -1.00001,0 -0.49999,0 -1,0 -0.49999,0 -0.99999,0 -0.50001,0 -1,0 -0.50001,0 -1.00001,0 -0.49999,0 -1,0 -0.49999,0 -0.99999,0 -0.50001,0 -1,0 -0.50001,0 -1.00001,0 -0.49999,0 -1,0 -0.49999,0 -1,0 -0.5,0 -0.99999,0 -0.50001,0 -1.00001,0 -0.49999,0 -1,0 -0.49999,0 -1,0 -0.5,0 -0.99999,0 -0.50001,0 -1,0 -0.5,0 -1.00001,0 -0.5,0 -1,0 -0.5,0 -0.875,-0.125 -0.375,-0.125 -0.5,-0.50001 -0.125,-0.37499 -0.125,-0.87499 0,-0.50001 0,-1 0,-0.5 0,-1 0,-0.5 0,-1 0,-0.5 0,-1 0,-0.50001 0,-1 v -0.5 -0.5 q 0,-0.5 0,-1.000006 0,-0.499999 0,-0.999998 0,-0.500002 0,-1.000001 0,-0.499999 0,-1 0,-0.499999 0,-1.000001 0,-0.499999 0,-0.999998 0,-0.500002 0,-1.000001 0,-0.499999 0,-1 0,-0.499999 0,-1.000001 0,-0.499999 0,-0.999998 0,-0.500002 0,-1.000001 0,-0.499999 0,-1.000001 v -0.499999 -0.500001 q 0,-0.499999 0,-0.999998 0,-0.500002 0,-1.000001 0,-0.500001 0,-1"
           style="fill:#a7a7a7;fill-opacity:1;stroke-width:1" />
        <path
           inkscape:connector-curvature="0"
           id="path78430"
           d="m 102.92263,84.802064 q 0.125,-0.374999 0.5,-0.499999 0.375,-0.124999 0.875,-0.124999 0.5,0 1,0 0.5,0 1,0 0.5,0 1,0 0.5,0 1,0 0.5,0 1,0 0.5,0 1,0 0.5,0 1,0 0.5,0 1,0 0.5,0 1,0 0.5,0 1,0 0.5,0 1,0 0.5,0 1,0 0.5,0 1,0 0.5,0 1,0 0.5,0 1,0 0.5,0 1,0 0.5,0 1,0 0.5,0 1,0 0.5,0 1,0 0.5,0 1,0 0.5,0 1,0 0.5,0 1,0 h 0.5 v 0.499999 q 0,0.499999 0,1 0,0.499999 0,1.000001 0,0.499999 0,0.999998 v 0.500001 0.499999 q 0,0.500002 0,1.000001 0,0.499999 0,1.000001 0,0.499999 0,0.999998 0,0.500002 0,1.000001 0,0.500001 0,1 0,0.499999 0,1.000001 0,0.499999 0,0.999998 0,0.500002 0,1.000001 0,0.500001 0,1 0,0.499999 0,1.000001 0,0.499999 0,0.999998 0,0.500006 0,1.000006 v 0.5 0.5 q 0,0.49999 0,1 0,0.5 0,1 0,0.5 0,1 0,0.5 0,1 0,0.49999 0,1 0,0.5 -0.125,0.87499 -0.125,0.37501 -0.5,0.50001 -0.375,0.125 -0.875,0.125 -0.5,0 -1,0 -0.5,0 -1,0 -0.5,0 -1,0 -0.5,0 -1,0 -0.5,0 -1,0 -0.5,0 -1,0 -0.5,0 -1,0 -0.5,0 -1,0 -0.5,0 -1,0 -0.5,0 -1,0 -0.5,0 -1,0 -0.5,0 -1,0 -0.5,0 -1,0 -0.5,0 -1,0 -0.5,0 -1,0 -0.5,0 -1,0 -0.5,0 -1,0 -0.5,0 -1,0 -0.5,0 -1,0 -0.5,0 -1,0 -0.5,0 -1,0 -0.5,0 -1,0 h -0.5 v -0.5 q 0,-0.5 0,-1 0,-0.50001 0,-1 0,-0.5 0,-1 0,-0.5 0,-1 0,-0.5 0,-1 0,-0.50001 0,-1 0,-0.5 0,-1 0,-0.5 0,-1.000006 0,-0.499999 0,-0.999998 0,-0.500002 0,-1.000001 0,-0.499999 0,-1 0,-0.499999 0,-1.000001 0,-0.499999 0,-0.999998 0,-0.500002 0,-1.000001 0,-0.499999 0,-1 0,-0.499999 0,-1.000001 0,-0.499999 0,-0.999998 0,-0.500002 0,-1.000001 0,-0.499999 0,-1.000001 0,-0.499999 0,-1 0,-0.499999 0,-0.999998 0,-0.500002 0,-1.000001 0,-0.500001 0.125,-0.875001"
           style="fill:#a7a7a7;fill-opacity:1;stroke-width:1" />
        <path
           inkscape:connector-curvature="0"
           id="path78444"
           d="m 78.79763,108.67706 v -0.49999 h 0.50001 q 0.49999,0 1,0 0.5,0 0.99999,0 0.50001,0 1,0 0.50001,0 1.00001,0 0.49999,0 0.99999,0 0.5,0 1,0 0.5,0 1,0 0.5,0 1,0 0.5,0 1,0 0.5,0 1,0 0.5,0 1,0 0.5,0 1,0 0.5,0 1,0 0.5,0 1,0 0.5,0 1,0 0.5,0 1,0 0.5,0 1,0 0.5,0 1,0 0.5,0 1,0 0.5,0 1,0 0.5,0 1,0 0.5,0 1,0 0.5,0 1,0 h 0.5 v 0.49999 q 0,0.50001 0,1.00001 0,0.49999 0,1 0,0.5 0,1 v 0.5 0.49999 0.50001 0.5 q 0,0.5 0,1 0,0.5 0,1 0,0.5 0,0.99999 0,0.50001 0,1.00001 0,0.49999 0,0.99999 0,0.5 0,1 0,0.5 0,1 0,0.5 0,1 0,0.5 0,1 0,0.5 0,1 0,0.5 0,1.00001 v 0.5 0.49999 q 0,0.5 0,1 0,0.5 0,1 0,0.5 0,1 0,0.5 0,1 0,0.5 0,1 0,0.5 -0.125,0.875 -0.125,0.375 -0.5,0.5 -0.375,0.125 -0.875,0.125 -0.5,0 -1,0 -0.5,0 -1,0 -0.5,0 -1,0 -0.5,0 -1,0 -0.5,0 -1,0 -0.5,0 -1,0 -0.5,0 -1,0 -0.5,0 -1,0 -0.5,0 -1,0 -0.5,0 -1,0 -0.5,0 -1,0 -0.5,0 -1,0 -0.5,0 -1,0 -0.5,0 -1,0 -0.5,0 -1,0 -0.5,0 -1,0 -0.5,0 -1,0 -0.5,0 -0.99999,0 -0.5,0 -1.00001,0 -0.49999,0 -1,0 -0.49999,0 -0.99999,0 -0.50001,0 -0.875,-0.125 -0.375,-0.125 -0.5,-0.5 -0.12501,-0.375 -0.12501,-0.875 0,-0.5 0,-1 0,-0.5 0,-1 0,-0.5 0,-1 0,-0.5 0,-1 0,-0.5 0,-1 v -0.49999 -0.5 q 0,-0.50001 0,-1.00001 0,-0.5 0,-1 0,-0.5 0,-1 0,-0.5 0,-1 0,-0.5 0,-1 0,-0.5 0,-1 0,-0.5 0,-0.99999 0,-0.5 0,-1.00001 0,-0.49999 0,-0.99999 0,-0.5 0,-1 0,-0.5 0,-1 v -0.5 -0.50001 -0.49999 -0.5 q 0,-0.5 0,-1 0,-0.50001 0,-1 0,-0.5 0,-1.00001"
           style="fill:#a7a7a7;fill-opacity:1;stroke-width:1" />
      </g>
    </g>
  </g>
</svg>
